<svg width="206" height="14" viewBox="0 0 206 14" fill="none" xmlns="http://www.w3.org/2000/svg">
<g id="LARGE" clip-path="url(#clip0_0_1)">
<rect width="2500" height="1864" transform="translate(-685 -1436)" fill="white"/>
<g id="Group 21.1">
<path id="Rectangle 4.15" d="M-685 -646C-685 -646 76.8447 -646 565 -646C1053.16 -646 1815 -646 1815 -646V428C838.689 428 291.311 428 -685 428V-646Z" fill="#131313"/>
</g>
<g id="Group 66">
<g id="Group 2.18">
<g id="Group 8.4">
<g id="Group">
<path id="Vector (Stroke)" fill-rule="evenodd" clip-rule="evenodd" d="M199.045 0L205.683 6.63804L199.045 13.2761L198.097 12.3285L203.788 6.63804L198.097 0.947567L199.045 0Z" fill="white"/>
<path id="Vector (Stroke)_2" fill-rule="evenodd" clip-rule="evenodd" d="M204.736 7.30784L164.228 7.30784L164.228 5.96777L204.736 5.96778L204.736 7.30784Z" fill="white"/>
</g>
<g id="Group_2">
<path id="Vector (Stroke)_3" fill-rule="evenodd" clip-rule="evenodd" d="M6.63813 13.2761L8.40268e-05 6.63808L6.63813 3.80641e-05L7.58569 0.947606L1.89522 6.63808L7.58569 12.3286L6.63813 13.2761Z" fill="white"/>
<path id="Vector (Stroke)_4" fill-rule="evenodd" clip-rule="evenodd" d="M0.947579 5.96828L41.4556 5.96829L41.4556 7.30835L0.947578 7.30834L0.947579 5.96828Z" fill="white"/>
</g>
<g id="Group 7.1">
<rect id="Rectangle 7.2" x="125.164" y="1.45654" width="9.56667" height="9.56667" rx="4.78333" fill="white" fill-opacity="0.3"/>
<rect id="Rectangle 7.3" x="98.0583" y="1.45654" width="9.56667" height="9.56667" rx="4.78333" fill="white" fill-opacity="0.3"/>
<rect id="Rectangle 7.4" x="70.9529" y="1.4563" width="9.56667" height="9.56667" rx="4.78333" fill="white"/>
</g>
</g>
</g>
</g>
</g>
<defs>
<clipPath id="clip0_0_1">
<rect width="2500" height="1864" fill="white" transform="translate(-685 -1436)"/>
</clipPath>
</defs>
</svg>
